<mxfile host="app.diagrams.net" modified="2022-09-07T11:30:03.772Z" agent="5.0 (Windows NT 10.0; Win64; x64) AppleWebKit/537.36 (KHTML, like Gecko) Chrome/104.0.0.0 Safari/537.36" etag="0WRqx_8DxnKp99THRhpC" version="20.2.7" type="github">
  <diagram id="PyGy599M9U8Ta-cn7Efb" name="Page-1">
    <mxGraphModel dx="2346" dy="1293" grid="1" gridSize="10" guides="1" tooltips="1" connect="1" arrows="1" fold="1" page="1" pageScale="1" pageWidth="1100" pageHeight="850" math="0" shadow="0">
      <root>
        <mxCell id="0" />
        <mxCell id="1" parent="0" />
        <mxCell id="lmmgZAD-LvhzfWVlW3RH-1" value="&lt;h1&gt;&lt;span style=&quot;background-color: initial;&quot;&gt;Smallest Difference&lt;/span&gt;&lt;br&gt;&lt;/h1&gt;&lt;div&gt;&lt;span style=&quot;background-color: initial;&quot;&gt;Write function that takes in two non-empty arrays of integers, finds the pairs (one from each array) whose absolute difference is closest to zero, and returns an array containing these two numbers. Number from first array in first position and number from second array in second position&lt;/span&gt;&lt;/div&gt;&lt;div&gt;&lt;span style=&quot;background-color: initial;&quot;&gt;&lt;br&gt;&lt;/span&gt;&lt;/div&gt;&lt;div&gt;&lt;span style=&quot;background-color: initial;&quot;&gt;&lt;br&gt;&lt;/span&gt;&lt;/div&gt;" style="text;html=1;strokeColor=none;fillColor=none;spacing=5;spacingTop=-20;whiteSpace=wrap;overflow=hidden;rounded=0;" vertex="1" parent="1">
          <mxGeometry x="70" y="40" width="400" height="150" as="geometry" />
        </mxCell>
      </root>
    </mxGraphModel>
  </diagram>
</mxfile>
